<mxfile host="app.diagrams.net" modified="2023-11-13T04:36:33.900Z" agent="Mozilla/5.0 (Windows NT 10.0; Win64; x64) AppleWebKit/537.36 (KHTML, like Gecko) Chrome/109.0.0.0 Safari/537.36 SLBrowser/9.0.0.10191 SLBChan/105" version="21.7.5" etag="dEwelcixSGDS6Y5b8khH" type="github">
  <diagram name="第 1 页" id="QS_miIMry9svV1YGQd5B">
    <mxGraphModel>
      <root>
        <mxCell id="0" />
        <mxCell id="1" parent="0" />
      </root>
    </mxGraphModel>
  </diagram>
</mxfile>
